<svg xmlns="http://www.w3.org/2000/svg" width="662" height="64.658" viewBox="0 0 662 64.658">
  <g id="Grupo_73" data-name="Grupo 73" transform="translate(-718 -155)">
    <g id="Grupo_7" data-name="Grupo 7" transform="translate(578 89)">
      <g id="Grupo_5" data-name="Grupo 5">
        <g id="Grupo_2" data-name="Grupo 2" transform="translate(-24.654 -94.295)">
          <path id="Trazado_1" data-name="Trazado 1" d="M223.783,297.542a7.727,7.727,0,0,0,1.587-4.446,1.407,1.407,0,0,0-2.664-.643,2.53,2.53,0,0,1-.7.787,1.441,1.441,0,0,1-1.637.009,6.612,6.612,0,0,1-.81-.814c-1.211-1.334-3.237-3.568-6.875-3.568a4.1,4.1,0,0,0-2.82.992,4.1,4.1,0,0,0-2.819-.992c-3.638,0-5.664,2.233-6.875,3.568a6.8,6.8,0,0,1-.8.811,1.445,1.445,0,0,1-1.644-.006,2.54,2.54,0,0,1-.694-.774,1.41,1.41,0,0,0-2.671.63,7.724,7.724,0,0,0,1.587,4.445,11.75,11.75,0,0,0-1.545,9.033,1.41,1.41,0,0,0,1.709,1.026c.035-.009.07-.019.1-.03l1.354-.452a8.687,8.687,0,0,0,1.256,6.945,1.41,1.41,0,0,0,2.17.215l1.443-1.443a8.041,8.041,0,0,0,.678,2.384c1.07,2.306,3.191,4,6.3,5.04a1.411,1.411,0,0,0,.892,0c3.113-1.038,5.234-2.733,6.3-5.04a8.033,8.033,0,0,0,.678-2.384l1.443,1.443a1.41,1.41,0,0,0,2.169-.215,8.685,8.685,0,0,0,1.256-6.945l1.354.452a1.41,1.41,0,0,0,1.783-.891c.011-.034.021-.069.03-.1A11.75,11.75,0,0,0,223.783,297.542ZM209.862,302a14.986,14.986,0,0,1-6.3-1.643,10.592,10.592,0,0,0,4.9-1.762,7.028,7.028,0,0,0,1.394-1.319,7.03,7.03,0,0,0,1.394,1.32,10.592,10.592,0,0,0,4.9,1.762A14.981,14.981,0,0,1,209.862,302Z" transform="translate(-21.817 -95.377)" fill="#fff"/>
          <path id="Trazado_2" data-name="Trazado 2" d="M218.138,253.21h-14c-.022,0-.043,0-.064,0h-6.721c-.021,0-.042,0-.064,0h-14a1.7,1.7,0,0,0-1.7,1.874,8.7,8.7,0,0,0,17.315.573h3.612a8.7,8.7,0,0,0,17.315-.558A1.707,1.707,0,0,0,218.138,253.21Zm-19.2,2.249c.018-.119.035-.239.048-.359a1.694,1.694,0,0,0-.146-.895h3.742a1.68,1.68,0,0,0-.145.879c.013.126.03.25.048.375Z" transform="translate(-12.558 -68.926)" fill="#fff"/>
          <path id="Trazado_3" data-name="Trazado 3" d="M208.289,177.277H203.8l1.7-13.046a3.521,3.521,0,0,0-3.456-3.936H172.768a3.52,3.52,0,0,0-3.456,3.936l1.7,13.046h-4.491a1.872,1.872,0,0,0-1.869,1.87v2.072a1.872,1.872,0,0,0,1.869,1.869h41.765a1.872,1.872,0,0,0,1.87-1.869v-2.072A1.872,1.872,0,0,0,208.289,177.277Z" transform="translate(0)" fill="#fff"/>
          <g id="Grupo_1" data-name="Grupo 1" transform="translate(178.866 167.018)">
            <path id="Trazado_4" data-name="Trazado 4" d="M226.374,190.867h1.911v3.666a6.236,6.236,0,0,1-3.654,1.149,4.681,4.681,0,1,1,.039-9.347,4.818,4.818,0,0,1,3.783,1.562l-1.343,1.239a3.059,3.059,0,0,0-2.337-1.02,2.892,2.892,0,1,0-.026,5.784,3.32,3.32,0,0,0,1.627-.387Z" transform="translate(-219.7 -186.336)" fill="#224870"/>
            <path id="Trazado_5" data-name="Trazado 5" d="M268.286,190.215c0,2.014-1.51,3.266-3.924,3.266h-1.82v2.492H260.45v-9.037h3.912C266.776,186.936,268.286,188.188,268.286,190.215Zm-2.117,0c0-.994-.645-1.575-1.923-1.575h-1.7v3.137h1.7C265.524,191.777,266.169,191.2,266.169,190.215Z" transform="translate(-249.929 -186.781)" fill="#224870"/>
          </g>
        </g>
        <g id="Grupo_3" data-name="Grupo 3" transform="translate(-880.502 -685.887)">
          <path id="Trazado_11" data-name="Trazado 11" d="M31.4,354.728H42.287v18.033a28.5,28.5,0,0,1-8.584,4.108A34.247,34.247,0,0,1,24,378.3a25.958,25.958,0,0,1-12.312-2.888A21.624,21.624,0,0,1,3.1,367.353a23.534,23.534,0,0,1,0-23.38,21.424,21.424,0,0,1,8.633-8.057,26.582,26.582,0,0,1,12.5-2.888,27.884,27.884,0,0,1,10.945,2.048,21.163,21.163,0,0,1,8.082,5.911l-7.818,7.119a13.779,13.779,0,0,0-10.571-4.85,12.284,12.284,0,0,0-9.02,3.385,12.107,12.107,0,0,0-3.415,9.05,13.163,13.163,0,0,0,1.551,6.438,11.166,11.166,0,0,0,4.354,4.415,12.725,12.725,0,0,0,6.408,1.588A15.767,15.767,0,0,0,31.4,366.7Z" transform="translate(1079.01 425.466)" fill="#fff"/>
          <path id="Trazado_12" data-name="Trazado 12" d="M96.789,350.7a17.815,17.815,0,0,1,6.622-1.147V360.19a24.384,24.384,0,0,0-2.673-.19,8.237,8.237,0,0,0-5.935,2.054q-2.143,2.051-2.128,6.285v15.483H80.84V350.1H92.092v4.041A11.045,11.045,0,0,1,96.789,350.7Z" transform="translate(1047.735 419.071)" fill="#fff"/>
          <path id="Trazado_13" data-name="Trazado 13" d="M151.093,353.388q4.415,3.826,4.415,11.724v18.72H144.471v-4.354q-2.557,4.9-9.952,4.905a15.54,15.54,0,0,1-6.776-1.367,10,10,0,0,1-4.323-3.679,9.8,9.8,0,0,1-1.465-5.316,8.623,8.623,0,0,1,3.679-7.432q3.679-2.649,11.319-2.643h6.714q-.313-5.353-7.156-5.353a16.64,16.64,0,0,0-4.905.779,13.044,13.044,0,0,0-4.225,2.146L123.4,353.5a21.912,21.912,0,0,1,6.806-2.894,32.182,32.182,0,0,1,8.057-1.024Q146.672,349.571,151.093,353.388Zm-9.639,22.546a5.509,5.509,0,0,0,2.238-2.925v-2.919h-5.071q-5.16,0-5.163,3.422a3,3,0,0,0,1.183,2.453,5.091,5.091,0,0,0,3.238.932A6.559,6.559,0,0,0,141.454,375.934Z" transform="translate(1031.833 419.061)" fill="#fff"/>
          <path id="Trazado_14" data-name="Trazado 14" d="M220.913,353.264q3.826,3.734,3.826,11.258V383.8h-11.8V366.447q0-6.9-5.519-6.9a6.32,6.32,0,0,0-4.905,1.987q-1.84,2-1.84,5.972V383.8H188.85V350.075h11.258v3.679a13.472,13.472,0,0,1,4.721-3.139,16.151,16.151,0,0,1,5.972-1.085A13.961,13.961,0,0,1,220.913,353.264Z" transform="translate(1004.953 419.081)" fill="#fff"/>
          <path id="Trazado_15" data-name="Trazado 15" d="M294.854,330.19v46.141H283.6v-3.36q-3.293,3.918-9.884,3.918a16.759,16.759,0,0,1-8.394-2.14,15.519,15.519,0,0,1-6-6.132,20.228,20.228,0,0,1,0-18.4,15.335,15.335,0,0,1,6-6.058,16.88,16.88,0,0,1,8.394-2.115q6.024,0,9.326,3.483V330.2Zm-13.619,35.165a8.435,8.435,0,0,0,1.993-5.942,8.059,8.059,0,0,0-1.962-5.844,6.577,6.577,0,0,0-5.065-2.115,6.685,6.685,0,0,0-5.1,2.115,8.15,8.15,0,0,0-1.993,5.844,8.6,8.6,0,0,0,1.993,5.942,7.06,7.06,0,0,0,9.982.153c.049-.049.1-.1.153-.153Z" transform="translate(978.551 426.562)" fill="#fff"/>
          <path id="Trazado_16" data-name="Trazado 16" d="M360.617,351.705a15.617,15.617,0,0,1,5.972,6.089,20.163,20.163,0,0,1,0,18.346,15.686,15.686,0,0,1-5.972,6.132,16.583,16.583,0,0,1-8.364,2.14,12.569,12.569,0,0,1-9.394-3.544V395.89H331.05V350.117H342.3v3.36q3.293-3.918,9.952-3.918A16.574,16.574,0,0,1,360.617,351.705Zm-5.752,21.142a9.687,9.687,0,0,0,0-11.754,7.136,7.136,0,0,0-10.087-.11l-.11.11a9.663,9.663,0,0,0,0,11.754,7.136,7.136,0,0,0,10.087.11Z" transform="translate(949.946 419.07)" fill="#fff"/>
          <path id="Trazado_17" data-name="Trazado 17" d="M426.261,353.38q4.415,3.826,4.415,11.724v18.72H419.639V379.47q-2.557,4.9-9.952,4.905a15.55,15.55,0,0,1-6.782-1.367,10,10,0,0,1-4.292-3.679A9.8,9.8,0,0,1,397.135,374a8.623,8.623,0,0,1,3.679-7.432q3.679-2.649,11.319-2.643h6.714q-.313-5.353-7.156-5.353a16.64,16.64,0,0,0-4.905.779,13.044,13.044,0,0,0-4.225,2.146l-3.979-8.02a21.912,21.912,0,0,1,6.806-2.894,32.134,32.134,0,0,1,8.051-1.024Q421.846,349.56,426.261,353.38Zm-9.639,22.546A5.509,5.509,0,0,0,418.86,373v-2.919h-5.1q-5.16,0-5.163,3.422a3,3,0,0,0,1.183,2.453,5.09,5.09,0,0,0,3.238.932A6.558,6.558,0,0,0,416.622,375.926Z" transform="translate(924.386 419.069)" fill="#fff"/>
          <path id="Trazado_18" data-name="Trazado 18" d="M472.933,375.41a21.67,21.67,0,0,1-8.554-8.057,23.534,23.534,0,0,1,0-23.38,21.5,21.5,0,0,1,8.554-8.057,25.766,25.766,0,0,1,12.263-2.888,26.35,26.35,0,0,1,10.761,2.109,20.762,20.762,0,0,1,7.971,6.095l-7.836,7.094A12.89,12.89,0,0,0,485.84,343.2a12.621,12.621,0,0,0-6.316,1.551,10.823,10.823,0,0,0-4.292,4.384,14.637,14.637,0,0,0,0,13,10.784,10.784,0,0,0,4.292,4.384,12.675,12.675,0,0,0,6.316,1.557,12.894,12.894,0,0,0,10.258-5.1l7.836,7.088a20.716,20.716,0,0,1-7.971,6.095,26.355,26.355,0,0,1-10.761,2.115A25.784,25.784,0,0,1,472.933,375.41Z" transform="translate(900.573 425.465)" fill="#fff"/>
          <path id="Trazado_19" data-name="Trazado 19" d="M542.883,382.142a16.991,16.991,0,0,1,0-30.376,21.262,21.262,0,0,1,9.811-2.207,21.5,21.5,0,0,1,9.811,2.207,16.554,16.554,0,0,1,6.745,6.132,16.81,16.81,0,0,1,2.453,8.983,16.992,16.992,0,0,1-2.453,9.02,16.685,16.685,0,0,1-6.745,6.218,22.566,22.566,0,0,1-19.621,0Zm14.863-9.3a8.4,8.4,0,0,0,1.987-5.942,8.042,8.042,0,0,0-1.987-5.844,7.206,7.206,0,0,0-10.191-.006l-.006.006a8.177,8.177,0,0,0-1.993,5.844,8.545,8.545,0,0,0,1.993,5.942,7.136,7.136,0,0,0,10.087.11Z" transform="translate(872.631 419.071)" fill="#fff"/>
          <path id="Trazado_20" data-name="Trazado 20" d="M604.542,334.65a6.022,6.022,0,0,1-.448-8.5,6.169,6.169,0,0,1,.448-.448,7.5,7.5,0,0,1,5.224-1.8,7.748,7.748,0,0,1,5.224,1.711,5.517,5.517,0,0,1,1.987,4.384,6.033,6.033,0,0,1-1.987,4.629,8.41,8.41,0,0,1-10.424.031Zm-.687,5.519h11.816v33.724H603.856Z" transform="translate(845.923 429)" fill="#fff"/>
          <path id="Trazado_21" data-name="Trazado 21" d="M668.487,353.264q3.826,3.734,3.826,11.258V383.8H660.5V366.447q0-6.9-5.519-6.9a6.32,6.32,0,0,0-4.905,1.987q-1.84,2-1.84,5.972V383.8h-11.8V350.075h11.252v3.679a13.552,13.552,0,0,1,4.728-3.139,16.151,16.151,0,0,1,5.972-1.085A13.946,13.946,0,0,1,668.487,353.264Z" transform="translate(832.817 419.081)" fill="#fff"/>
        </g>
      </g>
    </g>
    <text id="Wallet" transform="translate(1214 205)" fill="#fbd206" font-size="50" font-family="Montserrat-SemiBold, Montserrat" font-weight="600"><tspan x="0" y="0">Wallet</tspan></text>
  </g>
</svg>
